# xmcd
#
# Track frame offsets:
# 150
# 12690
# 28372
# 42657
# 57350
# 74792
# 91080
# 105297
# 120372
# 134700
# 151085
# 170260
# 183362
# 199707
# 217007
# 234422
# 253432
# 266105
# 282190
# 299450
#
# Disc length: 4218 seconds
#
#
# Revision: 4
# Processed by: cddbd v1.5.2PL0 Copyright (c) Steve Scherf et al.
# Submitted via: FreeRIP 2.951 
#
DISCID=38107814
DTITLE=Curtis Mayfield - Move On Up: The Singles Anthology 1970-90  [CD1]
DYEAR=1999
DGENRE=Soul
TTITLE0=Move on Up (Single Edit)
TTITLE1=(Don't Worry) If There's a Hell Below, We're All Gonna Go (Single Edit)
TTITLE2=Beautiful Brother of Mine
TTITLE3=Mighty, Mighty Spade and Whitey (Live) (Single Edit)
TTITLE4=Get Down (Single Edit)
TTITLE5=We Got to Have Peace (Single Edit)
TTITLE6=Keep on Keeping on
TTITLE7=Freddie's Dead
TTITLE8=Superfly (Single Edit)
TTITLE9=Future Shock (Single Edit)
TTITLE10=Back to the World
TTITLE11=If I Were Only a Child Again
TTITLE12=Can't Say Nothin' (Single Edit)
TTITLE13=Kung Fu (Single Edit)
TTITLE14=Sweet Exorcist
TTITLE15=Mother's Son (Single Edit)
TTITLE16=So in Love (Single Edit)
TTITLE17=Only You Babe (Single Edit)
TTITLE18=Party Night
TTITLE19=Show Me Love
EXTD=
EXTT0=
EXTT1=
EXTT2=
EXTT3=
EXTT4=
EXTT5=
EXTT6=
EXTT7=
EXTT8=
EXTT9=
EXTT10=
EXTT11=
EXTT12=
EXTT13=
EXTT14=
EXTT15=
EXTT16=
EXTT17=
EXTT18=
EXTT19=
PLAYORDER=
